<mxfile host="app.diagrams.net" modified="2023-12-01T18:28:59.629Z" agent="Mozilla/5.0 (Windows NT 10.0; Win64; x64) AppleWebKit/537.36 (KHTML, like Gecko) Chrome/119.0.0.0 Safari/537.36 Edg/119.0.0.0" etag="AKaUkGVTQanOX-lAk_rp" version="22.1.5" type="device">
  <diagram name="Page-1" id="hGXfSpJrGDJJp-Bl5NNE">
    <mxGraphModel dx="868" dy="594" grid="1" gridSize="10" guides="1" tooltips="1" connect="1" arrows="1" fold="1" page="1" pageScale="1" pageWidth="4681" pageHeight="3300" math="0" shadow="0">
      <root>
        <mxCell id="0" />
        <mxCell id="1" parent="0" />
        <mxCell id="DYwrozuc5hqNMGQRxmMC-3" style="edgeStyle=orthogonalEdgeStyle;rounded=0;orthogonalLoop=1;jettySize=auto;html=1;exitX=0.5;exitY=0;exitDx=0;exitDy=0;exitPerimeter=0;flowAnimation=1;" parent="1" source="DYwrozuc5hqNMGQRxmMC-1" target="DYwrozuc5hqNMGQRxmMC-2" edge="1">
          <mxGeometry relative="1" as="geometry" />
        </mxCell>
        <mxCell id="DYwrozuc5hqNMGQRxmMC-4" value="Commit" style="edgeLabel;html=1;align=center;verticalAlign=middle;resizable=0;points=[];" parent="DYwrozuc5hqNMGQRxmMC-3" vertex="1" connectable="0">
          <mxGeometry x="0.0162" relative="1" as="geometry">
            <mxPoint as="offset" />
          </mxGeometry>
        </mxCell>
        <mxCell id="DYwrozuc5hqNMGQRxmMC-1" value="" style="verticalLabelPosition=bottom;html=1;verticalAlign=top;align=center;strokeColor=none;fillColor=#00BEF2;shape=mxgraph.azure.user;" parent="1" vertex="1">
          <mxGeometry x="200" y="480" width="80" height="80" as="geometry" />
        </mxCell>
        <mxCell id="DYwrozuc5hqNMGQRxmMC-2" value="" style="dashed=0;outlineConnect=0;html=1;align=center;labelPosition=center;verticalLabelPosition=bottom;verticalAlign=top;shape=mxgraph.weblogos.github" parent="1" vertex="1">
          <mxGeometry x="200" y="320" width="80" height="80" as="geometry" />
        </mxCell>
        <mxCell id="DYwrozuc5hqNMGQRxmMC-9" style="edgeStyle=orthogonalEdgeStyle;rounded=0;orthogonalLoop=1;jettySize=auto;html=1;exitX=1;exitY=0.5;exitDx=0;exitDy=0;flowAnimation=1;" parent="1" source="DYwrozuc5hqNMGQRxmMC-5" target="tOKgwH6Wd0292G3HC1oT-2" edge="1">
          <mxGeometry relative="1" as="geometry">
            <mxPoint x="600" y="360" as="targetPoint" />
          </mxGeometry>
        </mxCell>
        <mxCell id="DYwrozuc5hqNMGQRxmMC-10" value="Analyst" style="edgeLabel;html=1;align=center;verticalAlign=middle;resizable=0;points=[];" parent="DYwrozuc5hqNMGQRxmMC-9" vertex="1" connectable="0">
          <mxGeometry x="-0.3139" y="1" relative="1" as="geometry">
            <mxPoint x="17" y="1" as="offset" />
          </mxGeometry>
        </mxCell>
        <mxCell id="DYwrozuc5hqNMGQRxmMC-5" value="" style="shape=image;verticalLabelPosition=bottom;labelBackgroundColor=default;verticalAlign=top;aspect=fixed;imageAspect=0;image=https://upload.wikimedia.org/wikipedia/commons/thumb/e/e9/Jenkins_logo.svg/1200px-Jenkins_logo.svg.png;" parent="1" vertex="1">
          <mxGeometry x="410" y="320" width="57.93" height="80" as="geometry" />
        </mxCell>
        <mxCell id="DYwrozuc5hqNMGQRxmMC-6" value="" style="endArrow=classic;html=1;rounded=0;flowAnimation=1;" parent="1" source="DYwrozuc5hqNMGQRxmMC-2" target="DYwrozuc5hqNMGQRxmMC-5" edge="1">
          <mxGeometry width="50" height="50" relative="1" as="geometry">
            <mxPoint x="310" y="440" as="sourcePoint" />
            <mxPoint x="360" y="390" as="targetPoint" />
          </mxGeometry>
        </mxCell>
        <mxCell id="DYwrozuc5hqNMGQRxmMC-7" value="Pulling" style="edgeLabel;html=1;align=center;verticalAlign=middle;resizable=0;points=[];" parent="DYwrozuc5hqNMGQRxmMC-6" vertex="1" connectable="0">
          <mxGeometry x="-0.1989" relative="1" as="geometry">
            <mxPoint x="8" as="offset" />
          </mxGeometry>
        </mxCell>
        <mxCell id="DYwrozuc5hqNMGQRxmMC-13" style="edgeStyle=orthogonalEdgeStyle;rounded=0;orthogonalLoop=1;jettySize=auto;html=1;flowAnimation=1;" parent="1" source="tOKgwH6Wd0292G3HC1oT-2" target="d7mPZhXvNipZDfmoZ8Hj-1" edge="1">
          <mxGeometry relative="1" as="geometry">
            <mxPoint x="680" y="360" as="sourcePoint" />
            <mxPoint x="800" y="360" as="targetPoint" />
          </mxGeometry>
        </mxCell>
        <mxCell id="DYwrozuc5hqNMGQRxmMC-14" value="Push" style="edgeLabel;html=1;align=center;verticalAlign=middle;resizable=0;points=[];" parent="DYwrozuc5hqNMGQRxmMC-13" vertex="1" connectable="0">
          <mxGeometry x="-0.3872" y="5" relative="1" as="geometry">
            <mxPoint x="23" y="5" as="offset" />
          </mxGeometry>
        </mxCell>
        <mxCell id="DYwrozuc5hqNMGQRxmMC-19" style="edgeStyle=orthogonalEdgeStyle;rounded=0;orthogonalLoop=1;jettySize=auto;html=1;flowAnimation=1;" parent="1" source="tOKgwH6Wd0292G3HC1oT-1" target="DYwrozuc5hqNMGQRxmMC-18" edge="1">
          <mxGeometry relative="1" as="geometry">
            <mxPoint x="814.1300000000001" y="520" as="sourcePoint" />
          </mxGeometry>
        </mxCell>
        <mxCell id="DYwrozuc5hqNMGQRxmMC-20" value="Update" style="edgeLabel;html=1;align=center;verticalAlign=middle;resizable=0;points=[];" parent="DYwrozuc5hqNMGQRxmMC-19" vertex="1" connectable="0">
          <mxGeometry x="-0.0305" y="-4" relative="1" as="geometry">
            <mxPoint x="-2" y="4" as="offset" />
          </mxGeometry>
        </mxCell>
        <mxCell id="DYwrozuc5hqNMGQRxmMC-16" value="" style="endArrow=classic;html=1;rounded=0;startArrow=classic;startFill=1;flowAnimation=1;" parent="1" source="d7mPZhXvNipZDfmoZ8Hj-1" target="tOKgwH6Wd0292G3HC1oT-1" edge="1">
          <mxGeometry width="50" height="50" relative="1" as="geometry">
            <mxPoint x="840" y="400" as="sourcePoint" />
            <mxPoint x="848.79375" y="480" as="targetPoint" />
          </mxGeometry>
        </mxCell>
        <mxCell id="tOKgwH6Wd0292G3HC1oT-10" value="Sync" style="edgeLabel;html=1;align=center;verticalAlign=middle;resizable=0;points=[];" parent="DYwrozuc5hqNMGQRxmMC-16" vertex="1" connectable="0">
          <mxGeometry x="-0.1069" y="-3" relative="1" as="geometry">
            <mxPoint x="3" y="4" as="offset" />
          </mxGeometry>
        </mxCell>
        <mxCell id="DYwrozuc5hqNMGQRxmMC-18" value="" style="shape=image;verticalLabelPosition=bottom;labelBackgroundColor=default;verticalAlign=top;aspect=fixed;imageAspect=0;image=https://kubernetes.io/images/favicon.png;" parent="1" vertex="1">
          <mxGeometry x="600" y="480" width="80" height="80" as="geometry" />
        </mxCell>
        <mxCell id="tOKgwH6Wd0292G3HC1oT-1" value="" style="shape=image;verticalLabelPosition=bottom;labelBackgroundColor=default;verticalAlign=top;aspect=fixed;imageAspect=0;image=https://global-uploads.webflow.com/6203daf47137054c031fa0e6/63c7f4ab9471e63a01d7d285_argo-icon-color.png;" parent="1" vertex="1">
          <mxGeometry x="808.7800000000001" y="480" width="80" height="80" as="geometry" />
        </mxCell>
        <mxCell id="tOKgwH6Wd0292G3HC1oT-2" value="" style="shape=image;verticalLabelPosition=bottom;labelBackgroundColor=default;verticalAlign=top;aspect=fixed;imageAspect=0;image=https://cdn.worldvectorlogo.com/logos/sonarqube.svg;" parent="1" vertex="1">
          <mxGeometry x="600" y="350.2" width="80" height="19.6" as="geometry" />
        </mxCell>
        <mxCell id="d7mPZhXvNipZDfmoZ8Hj-1" value="" style="image;sketch=0;aspect=fixed;html=1;points=[];align=center;fontSize=12;image=img/lib/mscae/Docker.svg;" vertex="1" parent="1">
          <mxGeometry x="800" y="320" width="97.56" height="80" as="geometry" />
        </mxCell>
      </root>
    </mxGraphModel>
  </diagram>
</mxfile>
